<svg height="100%" version="1.1" width="100%" xmlns="http://www.w3.org/2000/svg" preserveAspectRatio="xMidYMid meet" viewBox="0 0 600 442" xmlns:xlink="http://www.w3.org/1999/xlink"><desc>Created with Snap</desc><defs/><g id="root" contentwidth="388.8" contentheight="195.8">
          <rect class="background" height="2000%" width="2000%" y="-1000%" x="-1000%" style="" fill="#ffffff"/>
          <rect class="watermarklayer" height="100%" width="100%" y="0" x="0" style="" fill="none"/>
          <g class="content" id="content" transform="matrix(1,0,0,1,5.6,8.1)">
            <g class="icon">
            <svg height="120" version="1.1" width="119" xmlns="http://www.w3.org/2000/svg" x="211" y="115" preserveAspectRatio="none" transform="matrix(1,0,0,1,0,0)"><desc>Created with Snap</desc><defs/><svg xmlns="http://www.w3.org/2000/svg" viewBox="211 115 119 120"><defs><linearGradient x1="0%" y1="50%" x2="100%" y2="50%" id="prefix-_hq-linearGradient-1"><stop stop-color="#45C6FF" offset="0%"/><stop stop-color="#3F29FB" offset="100%"/></linearGradient><linearGradient x1="100%" y1="50%" x2="0%" y2="50%" id="prefix-_hq-linearGradient-2"><stop stop-color="#3F29FB" offset="0%"/><stop stop-color="#45C6FF" offset="100%"/></linearGradient></defs><path d="M270.665 115c33.027 0 59.8 26.774 59.8 59.8 0 33.028-26.773 59.801-59.8 59.801H211V115h59.665ZM227 218.601h43.665c24.19 0 43.8-19.61 43.8-43.8 0-23.949-19.22-43.408-43.076-43.795l-.724-.006H227v87.601Z" id="prefix-_hq-矩形备份-4" fill="url(#prefix-_hq-linearGradient-1)" fill-rule="nonzero"/></svg></svg><svg height="120" version="1.1" width="86" xmlns="http://www.w3.org/2000/svg" x="297" y="115" preserveAspectRatio="none" transform="matrix(1,0,0,1,0,0)"><desc>Created with Snap</desc><defs/><svg xmlns="http://www.w3.org/2000/svg" viewBox="297 115 86 120"><defs><linearGradient x1="0%" y1="50%" x2="100%" y2="50%" id="prefix-pxt-linearGradient-1"><stop stop-color="#45C6FF" offset="0%"/><stop stop-color="#3F29FB" offset="100%"/></linearGradient><linearGradient x1="100%" y1="50%" x2="0%" y2="50%" id="prefix-pxt-linearGradient-2"><stop stop-color="#3F29FB" offset="0%"/><stop stop-color="#45C6FF" offset="100%"/></linearGradient></defs><path d="M383.466 115v119.601H323.8c-9.544 0-18.565-2.235-26.569-6.211a59.945 59.945 0 0 0 15.59-11.176 43.87 43.87 0 0 0 10.979 1.387h43.665V131H323.8l-.725.006c-3.536.057-6.97.534-10.255 1.382a59.927 59.927 0 0 0-15.587-11.177c8.002-3.976 17.023-6.211 26.567-6.211h59.665Z" id="prefix-pxt-形状结合" fill="url(#prefix-pxt-linearGradient-2)" fill-rule="nonzero"/></svg></svg></g>
            <g id="icon_name_and_slogan_gap">
            </g>
            <g class="name_and_slogan" id="name_and_slogan_id">
              <g class="name"><g id="nameDefaultGroup"><path d="M109.3 276.5 Q110.8 275 113.1 274 Q115.5 273 118.1 273 Q122 273 124.9 274.6 Q127.8 276.3 129.3 279.1 Q130.8 282 130.8 285.3 Q130.8 289.2 129.2 292.3 Q127.5 295.5 124.6 297.2 Q121.8 299 118.1 299 Q115 299 112.8 298.1 Q110.8 297.2 109.2 295.7 L109 309.2 L100 309.2 L100 273.7 L109.5 273.7 L109.3 276.5 Z M115.1 278.9 Q112.4 278.9 110.8 280.8 Q109.2 282.7 109.2 285.5 Q109.2 288.3 110.8 290.2 Q112.5 292.2 115.1 292.2 Q118 292.2 119.5 290.4 Q121 288.6 121 285.5 Q121 282.8 119.4 280.9 Q117.8 278.9 115.1 278.9 M146.3 276.4 Q147.7 274.8 149.2 273.9 Q150.7 273 152.6 273 Q154.2 273 155.8 273.5 Q157.3 274 158.2 274.8 L156 279.7 Q154.3 279 152.9 279 Q150.2 279 148.2 280.9 Q146.3 282.8 146.3 286.3 L146.3 298 L136.5 298 L136.5 273.7 L146.3 273.7 L146.3 276.4 M174.7 265.5 Q174.7 267.6 173 269 Q171.2 270.4 168.8 270.4 Q166.3 270.4 164.7 269 Q163 267.6 163 265.5 Q163 263.5 164.7 262.1 Q166.5 260.7 168.8 260.7 Q171.2 260.7 173 262.1 Q174.7 263.5 174.7 265.5 Z M173.6 298 L164.1 298 L164.1 273.3 L173.6 273.3 L173.6 298 M193.2 289.6 L199.1 272.7 L206.8 274.7 L197.9 298 L188.1 298 L179.2 275 L187.2 272.7 L193.2 289.6 M229.3 294.5 Q228.2 296.7 226 297.8 Q223.8 299 220.7 299 Q217.9 299 215.7 298 Q213.5 297 212.2 295.2 Q211 293.5 211 291.2 Q211 289.2 212.3 287.5 Q213.7 285.8 216.1 284.6 Q218.5 283.4 221.8 282.8 Q225.1 282.1 229 282 Q228.9 278.7 224.5 278.7 Q222.8 278.7 220.1 279.4 Q217.5 280 215.4 280.9 L212.7 275.8 Q215.5 274.5 219 273.7 Q222.5 273 225.7 273 Q238.8 273 238.8 283.4 L238.7 288.2 Q238.7 290.7 239 292.4 Q239.5 294.2 240.5 296.2 L231.7 299 Q230.8 298 230.2 296.8 Q229.5 295.6 229.3 294.5 Z M223.8 292.5 Q229 292.5 229 286 Q224.6 286.3 222.6 287.1 Q220.7 287.9 220.7 289.8 Q220.7 291 221.5 291.8 Q222.3 292.5 223.8 292.5 M262.5 278.8 Q258.8 278.8 256.5 280.6 Q254.2 282.3 254.2 285.5 Q254.2 288.5 256.5 290.2 Q258.8 292 262.7 292 Q264.4 292 265.9 291.6 Q267.4 291.2 268.3 290.8 L271 296.7 Q268.5 297.8 266 298.4 Q263.7 299 260.5 299 Q255.8 299 252.2 297.3 Q248.6 295.6 246.5 292.6 Q244.5 289.5 244.5 285.7 Q244.5 282 246.4 279.1 Q248.3 276.2 251.8 274.6 Q255.3 273 259.9 273 Q263.5 273 266.2 273.6 Q268.8 274.2 271.2 275.6 L269 280.7 Q267.3 279.8 265.9 279.3 Q264.5 278.8 262.5 278.8 M295 272.7 L303.2 275.5 L292.6 300.8 Q290.5 306 287.7 308.4 Q284.9 310.8 280 310.8 L277.9 304.7 Q280.2 304.3 282.4 303.2 Q283.3 302.7 284.1 301.7 Q284.9 300.7 285.2 299.5 L275.2 275.7 L283.1 272.7 L289.2 290.5 L295 272.7 M317 287.8 Q312.5 286.8 310.1 284.9 Q307.8 283 307.8 279.8 Q307.8 277.1 310.4 275.2 Q313 273.2 318.5 272.8 Q318.8 272.8 319.7 272.8 Q322.1 272.8 324.7 273.2 Q327.2 273.8 328.7 274.5 L326.8 279.3 Q323.1 278.2 320 278.2 Q318.2 278.2 317.1 278.8 Q316 279.3 316 280.2 Q316 281.7 319.7 282.5 Q324.6 283.9 326.8 285.7 Q329 287.5 329 290.8 Q329 294.7 326 296.6 Q323.2 298.5 318.1 298.9 Q317.7 299 316.7 299 Q313.8 299 310.8 298.2 Q307.8 297.5 306.5 296.3 L308.3 290.5 Q310.2 291.4 312.3 291.9 Q314.5 292.4 316.4 292.4 Q319 292.4 320.1 291.9 Q321.2 291.3 321.2 290.3 Q321.2 289.5 320.2 288.9 Q319.2 288.4 317 287.8 M351.6 292.2 Q354.3 292.2 356.3 291.6 Q358.4 291 360.2 289.8 L363.2 294.4 Q361.2 296.6 357.7 297.8 Q354.2 299 349.6 299 Q345.1 299 341.5 297.4 Q338 295.8 336 292.9 Q334 290 334 286.2 Q334 282.5 335.8 279.5 Q337.7 276.5 341 274.7 Q344.5 273 348.9 273 Q355.8 273 359.8 276.7 Q363.8 280.5 363.7 287.2 L343.6 287.2 Q344 289.8 346.2 291 Q348.3 292.2 351.6 292.2 Z M348.9 278.2 Q346.6 278.2 345.1 279.6 Q343.7 281 343.7 283 L353.8 283 Q353.8 281 352.4 279.6 Q351 278.2 348.9 278.2 M386.3 294.5 Q385.2 296.7 383 297.8 Q380.8 299 377.7 299 Q374.9 299 372.7 298 Q370.5 297 369.2 295.2 Q368 293.5 368 291.2 Q368 289.2 369.3 287.5 Q370.7 285.8 373.1 284.6 Q375.5 283.4 378.8 282.8 Q382.1 282.1 386 282 Q385.9 278.7 381.5 278.7 Q379.8 278.7 377.1 279.4 Q374.5 280 372.4 280.9 L369.7 275.8 Q372.5 274.5 376 273.7 Q379.5 273 382.7 273 Q395.8 273 395.8 283.4 L395.7 288.2 Q395.7 290.7 396 292.4 Q396.5 294.2 397.5 296.2 L388.7 299 Q387.8 298 387.2 296.8 Q386.5 295.6 386.3 294.5 Z M380.8 292.5 Q386 292.5 386 286 Q381.6 286.3 379.6 287.1 Q377.7 287.9 377.7 289.8 Q377.7 291 378.5 291.8 Q379.3 292.5 380.8 292.5 M413.3 276.4 Q414.7 274.8 416.2 273.9 Q417.7 273 419.6 273 Q421.2 273 422.8 273.5 Q424.3 274 425.2 274.8 L423 279.7 Q421.3 279 419.9 279 Q417.2 279 415.2 280.9 Q413.3 282.8 413.3 286.3 L413.3 298 L403.5 298 L403.5 273.7 L413.3 273.7 L413.3 276.4 M447.5 278.8 Q443.8 278.8 441.5 280.6 Q439.2 282.3 439.2 285.5 Q439.2 288.5 441.5 290.2 Q443.8 292 447.7 292 Q449.4 292 450.9 291.6 Q452.4 291.2 453.3 290.8 L456 296.7 Q453.5 297.8 451 298.4 Q448.7 299 445.5 299 Q440.8 299 437.2 297.3 Q433.6 295.6 431.5 292.6 Q429.5 289.5 429.5 285.7 Q429.5 282 431.4 279.1 Q433.3 276.2 436.8 274.6 Q440.3 273 444.9 273 Q448.5 273 451.2 273.6 Q453.8 274.2 456.2 275.6 L454 280.7 Q452.3 279.8 450.9 279.3 Q449.5 278.8 447.5 278.8 M470 276.5 Q474.5 272.7 478.5 272.7 Q483.2 272.7 486 275.5 Q488.8 278.4 488.8 283.6 L488.8 298 L479.2 298 L479.2 284.5 Q479.2 282 478 280.5 Q476.8 279 474.6 279 Q472.7 279 471.3 280.6 Q470 282.2 470 285 L470 298 L460.5 298 L460.5 261.6 L470 261.6 L470 276.5 " style="" fill="#000000" transform="matrix(1,0,0,1,0,0)"/></g></g>
              <g class="slogan"><g id="sloganDefaultGroup"/></g>
            </g>
            <g class="border">
            </g>
          </g>
          <defs id="defs">
            <mask xmlns="http://www.w3.org/2000/svg" id="mask">
                <rect id="showAll" fill="white" x="211" y="115" width="172" height="120"/>
                <rect id="hideNameBg" fill="black" x="0" y="0" width="0" height="0" stroke-width="2" stroke="black"/>
                <rect id="hideSloganBg" fill="black" x="0" y="0" width="0" height="0" stroke-width="2" stroke="black"/>
            </mask>
          
          </defs>
        </g>
        </svg>